# xmcd
#
# Track frame offsets: 
#        150
#        23655
#        40480
#        60180
#        74952
#        89540
#        110752
#        131132
#        147635
#        181102
#        195807
#        198367
#        219077
#        231755
#        246412
#
# Disc length: 3501 seconds
#
# Revision: 0
# Processed by: cddbd v1.5.2PL0 Copyright (c) Steve Scherf et al.
# Submitted via: ExactAudioCopyFreeDBPlugin 1.0
#
DISCID=dd0dab0f
DTITLE=Billy Barnett Band - Dysfunctional Family
DYEAR=2002
DGENRE=
TTITLE0=Watcha Know
TTITLE1=What Kind Of Man
TTITLE2=2nd Time Around
TTITLE3=Yambo Mi Curio
TTITLE4=Right By My side
TTITLE5=Dysfunctional Family
TTITLE6=Same Ol' Moon
TTITLE7=Beck Meets Wes
TTITLE8=Selfish
TTITLE9=The Castle
TTITLE10=Fight For Freedom
TTITLE11=Poltergeist
TTITLE12=Sternfield
TTITLE13=To Say
TTITLE14=Drinkin' Song
EXTD=
EXTT0=
EXTT1=
EXTT2=
EXTT3=
EXTT4=
EXTT5=
EXTT6=
EXTT7=
EXTT8=
EXTT9=
EXTT10=
EXTT11=
EXTT12=
EXTT13=
EXTT14=
PLAYORDER=
